<svg xmlns="http://www.w3.org/2000/svg" xmlns:xlink="http://www.w3.org/1999/xlink" width="119.51" height="69" viewBox="0 0 119.51 69"><defs><style>.cls-1,.cls-3{fill:none;}.cls-2{clip-path:url(#clip-path);}.cls-3{stroke:#6669;stroke-linejoin:bevel;stroke-width:0.15px;}</style><clipPath id="clip-path"><rect class="cls-1" width="119.51" height="69"/></clipPath></defs><title>Sigg Pattern</title><g id="Pattern"><rect class="cls-1" width="119.51" height="69"/><g class="cls-2"><polygon class="cls-3" points="0 0 59.76 34.5 59.76 -34.5 0 0"/><polygon class="cls-3" points="2.49 1.44 59.76 31.63 57.27 -33.06 2.49 1.44"/><polygon class="cls-3" points="5.03 2.78 59.65 28.75 54.83 -31.53 5.03 2.78"/><polygon class="cls-3" points="7.63 4.01 59.42 25.89 52.47 -29.9 7.63 4.01"/><polygon class="cls-3" points="10.28 5.13 59.06 23.03 50.17 -28.17 10.28 5.13"/><polygon class="cls-3" points="12.98 6.12 58.57 20.2 47.97 -26.32 12.98 6.12"/><polygon class="cls-3" points="15.72 6.97 57.93 17.4 45.86 -24.37 15.72 6.97"/><polygon class="cls-3" points="18.52 7.66 57.13 14.64 43.86 -22.3 18.52 7.66"/><polygon class="cls-3" points="21.34 8.17 56.16 11.93 42.01 -20.1 21.34 8.17"/><polygon class="cls-3" points="24.2 8.48 55 9.3 40.31 -17.78 24.2 8.48"/><polygon class="cls-3" points="27.08 8.56 53.63 6.77 38.81 -15.33 27.08 8.56"/><polygon class="cls-3" points="29.94 8.36 52.03 4.38 37.54 -12.75 29.94 8.36"/><polygon class="cls-3" points="32.77 7.85 50.17 2.19 36.57 -10.04 32.77 7.85"/><polygon class="cls-3" points="35.51 6.96 48.03 0.27 35.97 -7.23 35.51 6.96"/><polygon class="cls-3" points="38.04 5.61 45.59 -1.25 35.88 -4.36 38.04 5.61"/><polygon class="cls-3" points="40.17 3.67 42.85 -2.13 36.49 -1.55 40.17 3.67"/><polygon class="cls-3" points="41.38 1.06 39.99 -1.87 38.15 0.8 41.38 1.06"/><polygon class="cls-3" points="59.76 34.5 59.76 -34.5 119.51 0 59.76 34.5"/><polygon class="cls-3" points="59.76 31.63 62.24 -33.06 117.02 1.44 59.76 31.63"/><polygon class="cls-3" points="59.87 28.75 64.68 -31.53 114.48 2.78 59.87 28.75"/><polygon class="cls-3" points="60.09 25.89 67.05 -29.9 111.88 4.01 60.09 25.89"/><polygon class="cls-3" points="60.45 23.03 69.34 -28.16 109.23 5.13 60.45 23.03"/><polygon class="cls-3" points="60.94 20.2 71.55 -26.32 106.53 6.12 60.94 20.2"/><polygon class="cls-3" points="61.58 17.4 73.65 -24.37 103.79 6.97 61.58 17.4"/><polygon class="cls-3" points="62.38 14.64 75.65 -22.3 101 7.66 62.38 14.64"/><polygon class="cls-3" points="63.35 11.93 77.5 -20.1 98.17 8.17 63.35 11.93"/><polygon class="cls-3" points="64.51 9.3 79.2 -17.78 95.31 8.48 64.51 9.3"/><polygon class="cls-3" points="65.88 6.77 80.7 -15.33 92.44 8.56 65.88 6.77"/><polygon class="cls-3" points="67.48 4.38 81.97 -12.75 89.57 8.36 67.48 4.38"/><polygon class="cls-3" points="69.34 2.19 82.94 -10.04 86.74 7.85 69.34 2.19"/><polygon class="cls-3" points="71.48 0.27 83.54 -7.23 84 6.96 71.48 0.27"/><polygon class="cls-3" points="73.92 -1.25 83.63 -4.36 81.47 5.61 73.92 -1.25"/><polygon class="cls-3" points="76.66 -2.13 83.02 -1.55 79.34 3.67 76.66 -2.13"/><polygon class="cls-3" points="79.52 -1.87 81.37 0.8 78.13 1.06 79.52 -1.87"/><polygon class="cls-3" points="59.76 34.5 119.51 69 119.51 0 59.76 34.5"/><polygon class="cls-3" points="62.24 35.94 119.51 66.13 117.02 1.44 62.24 35.94"/><polygon class="cls-3" points="64.79 37.28 119.4 63.25 114.59 2.97 64.79 37.28"/><polygon class="cls-3" points="67.38 38.51 119.17 60.39 112.22 4.6 67.38 38.51"/><polygon class="cls-3" points="70.03 39.63 118.82 57.53 109.93 6.33 70.03 39.63"/><polygon class="cls-3" points="72.73 40.62 118.32 54.7 107.72 8.18 72.73 40.62"/><polygon class="cls-3" points="75.48 41.47 117.69 51.9 105.61 10.13 75.48 41.47"/><polygon class="cls-3" points="78.27 42.16 116.89 49.14 103.62 12.21 78.27 42.16"/><polygon class="cls-3" points="81.1 42.67 115.92 46.43 101.76 14.4 81.1 42.67"/><polygon class="cls-3" points="83.96 42.98 114.75 43.8 100.07 16.72 83.96 42.98"/><polygon class="cls-3" points="86.83 43.06 113.38 41.27 98.56 19.17 86.83 43.06"/><polygon class="cls-3" points="89.7 42.86 111.78 38.88 97.3 21.75 89.7 42.86"/><polygon class="cls-3" points="92.53 42.35 109.92 36.69 96.32 24.46 92.53 42.35"/><polygon class="cls-3" points="95.26 41.46 107.79 34.77 95.73 27.27 95.26 41.46"/><polygon class="cls-3" points="97.8 40.11 105.35 33.25 95.63 30.14 97.8 40.11"/><polygon class="cls-3" points="99.93 38.17 102.61 32.37 96.24 32.95 99.93 38.17"/><polygon class="cls-3" points="101.13 35.56 99.75 32.63 97.9 35.3 101.13 35.56"/><polygon class="cls-3" points="0 0 59.76 34.5 0 69 0 0"/><polygon class="cls-3" points="2.49 1.44 57.27 35.94 0 66.13 2.49 1.44"/><polygon class="cls-3" points="4.92 2.97 54.72 37.28 0.11 63.25 4.92 2.97"/><polygon class="cls-3" points="7.29 4.6 52.13 38.51 0.34 60.39 7.29 4.6"/><polygon class="cls-3" points="9.58 6.33 49.48 39.63 0.69 57.53 9.58 6.33"/><polygon class="cls-3" points="11.79 8.18 46.78 40.62 1.19 54.7 11.79 8.18"/><polygon class="cls-3" points="13.9 10.13 44.03 41.47 1.82 51.9 13.9 10.13"/><polygon class="cls-3" points="15.89 12.2 41.24 42.16 2.62 49.13 15.89 12.2"/><polygon class="cls-3" points="17.75 14.4 38.41 42.67 3.6 46.43 17.75 14.4"/><polygon class="cls-3" points="19.44 16.72 35.55 42.98 4.76 43.8 19.44 16.72"/><polygon class="cls-3" points="20.95 19.17 32.68 43.06 6.13 41.27 20.95 19.17"/><polygon class="cls-3" points="22.21 21.75 29.81 42.86 7.73 38.88 22.21 21.75"/><polygon class="cls-3" points="23.19 24.46 26.98 42.35 9.59 36.69 23.19 24.46"/><polygon class="cls-3" points="23.78 27.27 24.25 41.46 11.72 34.77 23.78 27.27"/><polygon class="cls-3" points="23.88 30.14 21.71 40.11 14.16 33.25 23.88 30.14"/><polygon class="cls-3" points="23.27 32.95 19.59 38.17 16.9 32.37 23.27 32.95"/><polygon class="cls-3" points="21.61 35.3 18.38 35.56 19.77 32.63 21.61 35.3"/><polygon class="cls-3" points="0 69 59.76 103.5 59.76 34.5 0 69"/><polygon class="cls-3" points="2.49 70.44 59.76 100.63 57.27 35.94 2.49 70.44"/><polygon class="cls-3" points="5.03 71.78 59.65 97.75 54.83 37.47 5.03 71.78"/><polygon class="cls-3" points="7.63 73.01 59.42 94.89 52.47 39.1 7.63 73.01"/><polygon class="cls-3" points="10.28 74.13 59.06 92.03 50.17 40.83 10.28 74.13"/><polygon class="cls-3" points="12.98 75.12 58.57 89.2 47.97 42.68 12.98 75.12"/><polygon class="cls-3" points="15.72 75.97 57.93 86.4 45.86 44.63 15.72 75.97"/><polygon class="cls-3" points="18.52 76.66 57.13 83.64 43.86 46.7 18.52 76.66"/><polygon class="cls-3" points="21.34 77.17 56.16 80.93 42.01 48.9 21.34 77.17"/><polygon class="cls-3" points="24.2 77.48 55 78.3 40.31 51.22 24.2 77.48"/><polygon class="cls-3" points="27.08 77.56 53.63 75.77 38.81 53.67 27.08 77.56"/><polygon class="cls-3" points="29.94 77.36 52.02 73.39 37.54 56.25 29.94 77.36"/><polygon class="cls-3" points="32.77 76.85 50.17 71.19 36.57 58.96 32.77 76.85"/><polygon class="cls-3" points="35.51 75.96 48.03 69.27 35.97 61.77 35.51 75.96"/><polygon class="cls-3" points="38.04 74.61 45.59 67.75 35.88 64.64 38.04 74.61"/><polygon class="cls-3" points="40.17 72.67 42.85 66.87 36.49 67.45 40.17 72.67"/><polygon class="cls-3" points="41.38 70.06 39.99 67.13 38.15 69.8 41.38 70.06"/><polygon class="cls-3" points="59.76 103.5 59.76 34.5 119.51 69 59.76 103.5"/><polygon class="cls-3" points="59.76 100.63 62.24 35.94 117.02 70.44 59.76 100.63"/><polygon class="cls-3" points="59.87 97.75 64.68 37.47 114.48 71.78 59.87 97.75"/><polygon class="cls-3" points="60.09 94.89 67.05 39.1 111.88 73.01 60.09 94.89"/><polygon class="cls-3" points="60.45 92.03 69.34 40.84 109.23 74.13 60.45 92.03"/><polygon class="cls-3" points="60.94 89.2 71.55 42.68 106.53 75.12 60.94 89.2"/><polygon class="cls-3" points="61.58 86.4 73.66 44.63 103.79 75.97 61.58 86.4"/><polygon class="cls-3" points="62.38 83.64 75.65 46.7 101 76.66 62.38 83.64"/><polygon class="cls-3" points="63.35 80.93 77.5 48.9 98.17 77.17 63.35 80.93"/><polygon class="cls-3" points="64.52 78.3 79.2 51.22 95.31 77.48 64.52 78.3"/><polygon class="cls-3" points="65.88 75.77 80.7 53.67 92.44 77.56 65.88 75.77"/><polygon class="cls-3" points="67.48 73.39 81.97 56.25 89.57 77.36 67.48 73.39"/><polygon class="cls-3" points="69.34 71.19 82.94 58.96 86.73 76.85 69.34 71.19"/><polygon class="cls-3" points="71.48 69.27 83.54 61.77 84 75.96 71.48 69.27"/><polygon class="cls-3" points="73.92 67.75 83.63 64.64 81.47 74.61 73.92 67.75"/><polygon class="cls-3" points="76.66 66.87 83.02 67.45 79.34 72.67 76.66 66.87"/><polygon class="cls-3" points="79.52 67.14 81.37 69.8 78.13 70.06 79.52 67.14"/></g></g></svg>
